<?xml version="1.0" standalone="no"?>
<!DOCTYPE svg PUBLIC "-//W3C//DTD SVG 20010904//EN"
 "http://www.w3.org/TR/2001/REC-SVG-20010904/DTD/svg10.dtd">
<svg version="1.0" xmlns="http://www.w3.org/2000/svg"
 width="512.000000pt" height="512.000000pt" viewBox="0 0 512.000000 512.000000"
 preserveAspectRatio="xMidYMid meet">

<g transform="translate(0.000000,512.000000) scale(0.100000,-0.100000)"
fill="#000000" stroke="none">
<path d="M2410 4690 c-555 -34 -1085 -273 -1475 -664 -688 -691 -811 -1732
-302 -2553 301 -485 810 -847 1382 -983 261 -63 259 -62 1217 -67 619 -3 898
-1 949 7 130 20 226 87 286 202 25 48 28 63 28 158 0 95 -3 111 -28 162 -16
32 -63 93 -111 144 l-83 88 62 76 c377 456 540 1096 429 1679 -126 656 -565
1219 -1189 1522 -363 177 -756 254 -1165 229z m435 -336 c746 -102 1367 -626
1568 -1324 47 -161 61 -271 61 -470 0 -210 -15 -314 -70 -496 -83 -275 -215
-502 -416 -712 -43 -45 -83 -94 -88 -108 -16 -40 -12 -117 7 -144 9 -14 76
-86 149 -160 112 -114 132 -139 127 -159 -3 -12 -17 -27 -30 -32 -33 -12
-1538 -11 -1721 1 -490 34 -937 234 -1269 568 -263 265 -433 590 -499 957 -25
140 -25 432 0 570 76 415 281 776 597 1049 436 377 998 540 1584 460z"/>
<path d="M2480 3747 c-49 -16 -133 -102 -148 -153 -28 -94 -8 -169 63 -239
102 -103 243 -101 338 5 90 100 90 220 0 320 -65 72 -158 97 -253 67z"/>
<path d="M2415 3026 c-100 -44 -124 -173 -49 -255 l34 -38 0 -406 0 -405 -70
-4 c-110 -6 -165 -58 -165 -158 0 -63 16 -95 69 -134 26 -20 40 -21 326 -21
286 0 300 1 326 21 53 39 69 71 69 134 0 99 -55 152 -165 158 l-69 4 -3 508
c-3 496 -4 509 -24 536 -42 57 -69 69 -162 72 -58 1 -97 -2 -117 -12z"/>
</g>
</svg>
