<?xml version="1.0" standalone="no"?>
<!DOCTYPE svg PUBLIC "-//W3C//DTD SVG 20010904//EN"
 "http://www.w3.org/TR/2001/REC-SVG-20010904/DTD/svg10.dtd">
<svg version="1.0" xmlns="http://www.w3.org/2000/svg"
 width="104.000000pt" height="104.000000pt" viewBox="0 0 64.000000 64.000000"
 preserveAspectRatio="xMidYMid meet">

<g transform="translate(0.000000,64.000000) scale(0.100000,-0.100000)"
fill="#000000" stroke="none">
<path d="M348 553 c-30 -8 -33 -63 -3 -63 20 0 46 30 43 48 -3 17 -15 22 -40
15z"/>
<path d="M297 389 c-26 -17 -47 -35 -47 -40 0 -12 7 -11 31 1 24 13 24 14 -1
-105 -21 -100 -25 -147 -14 -158 8 -8 59 18 85 44 25 25 25 43 -1 27 -10 -7
-23 -9 -27 -5 -4 5 3 58 15 120 24 121 27 147 14 147 -5 0 -30 -14 -55 -31z"/>
</g>
</svg>
