<?xml version="1.0" standalone="no"?>
<!DOCTYPE svg PUBLIC "-//W3C//DTD SVG 20010904//EN"
 "http://www.w3.org/TR/2001/REC-SVG-20010904/DTD/svg10.dtd">
<svg version="1.0" xmlns="http://www.w3.org/2000/svg"
 width="512.000000pt" height="512.000000pt" viewBox="0 0 512.000000 512.000000"
 preserveAspectRatio="xMidYMid meet">

<g transform="translate(0.000000,512.000000) scale(0.100000,-0.100000)"
fill="#000000" stroke="none">
<path d="M2345 4629 c-213 -22 -472 -95 -667 -187 -270 -127 -492 -295 -685
-517 -494 -569 -642 -1346 -392 -2061 42 -121 145 -330 216 -439 287 -437 728
-752 1232 -880 192 -48 282 -59 511 -59 229 0 319 11 511 59 739 188 1316 765
1504 1504 48 189 59 283 59 506 1 214 -11 332 -39 385 -26 50 -72 75 -140 75
-72 0 -113 -24 -140 -82 -17 -35 -17 -49 -7 -173 20 -226 13 -370 -28 -568
-54 -257 -184 -530 -353 -739 l-49 -62 -41 52 c-84 108 -170 198 -261 272
-104 84 -271 189 -360 224 l-56 24 83 86 c128 133 209 280 254 457 26 103 23
343 -5 445 -49 182 -140 337 -270 460 -384 368 -987 355 -1353 -29 -364 -381
-356 -976 20 -1346 l70 -69 -102 -51 c-236 -119 -428 -277 -579 -478 l-35 -47
-50 62 c-434 540 -514 1276 -207 1889 251 501 713 849 1263 949 135 25 358 34
480 20 52 -6 96 -9 98 -8 1 2 -58 78 -132 170 l-136 167 -67 -1 c-37 -1 -103
-5 -147 -10z m350 -1284 c287 -60 505 -329 505 -625 0 -297 -218 -565 -510
-626 -277 -58 -575 85 -699 337 -94 191 -94 387 0 579 126 255 420 395 704
335z m135 -1614 c169 -39 348 -118 478 -212 133 -97 333 -317 319 -352 -8 -22
-168 -123 -287 -183 -491 -244 -1072 -244 -1560 1 -121 61 -290 169 -290 186
0 22 88 134 164 210 199 199 461 330 738 369 98 14 340 3 438 -19z"/>
<path d="M3935 4626 c-37 -17 -70 -52 -84 -89 -6 -16 -11 -103 -11 -202 l0
-174 -189 -3 c-207 -3 -216 -6 -265 -72 -29 -39 -29 -133 0 -172 49 -66 58
-69 264 -72 l189 -3 3 -189 c3 -206 6 -215 72 -264 39 -29 133 -29 172 0 66
49 69 58 72 264 l3 189 189 3 c206 3 215 6 264 72 29 39 29 133 0 172 -49 66
-58 69 -264 72 l-189 3 -3 189 c-3 206 -6 215 -70 263 -34 25 -113 32 -153 13z"/>
</g>
</svg>
